<svg width="20" height="22" viewBox="0 0 20 22" fill="none" xmlns="http://www.w3.org/2000/svg">
<path d="M18.75 5.5H15V4.4C15 3.23305 14.4732 2.11389 13.5355 1.28873C12.5979 0.46357 11.3261 0 10 0C8.67392 0 7.40215 0.46357 6.46447 1.28873C5.52678 2.11389 5 3.23305 5 4.4V5.5H1.25C0.918479 5.5 0.600537 5.61589 0.366117 5.82218C0.131696 6.02847 0 6.30826 0 6.6V18.7C0 19.5752 0.395088 20.4146 1.09835 21.0335C1.80161 21.6523 2.75544 22 3.75 22H16.25C17.2446 22 18.1984 21.6523 18.9017 21.0335C19.6049 20.4146 20 19.5752 20 18.7V6.6C20 6.30826 19.8683 6.02847 19.6339 5.82218C19.3995 5.61589 19.0815 5.5 18.75 5.5ZM7.5 4.4C7.5 3.81652 7.76339 3.25695 8.23223 2.84436C8.70107 2.43178 9.33696 2.2 10 2.2C10.663 2.2 11.2989 2.43178 11.7678 2.84436C12.2366 3.25695 12.5 3.81652 12.5 4.4V5.5H7.5V4.4ZM17.5 18.7C17.5 18.9917 17.3683 19.2715 17.1339 19.4778C16.8995 19.6841 16.5815 19.8 16.25 19.8H3.75C3.41848 19.8 3.10054 19.6841 2.86612 19.4778C2.6317 19.2715 2.5 18.9917 2.5 18.7V7.7H5V8.8C5 9.09174 5.1317 9.37153 5.36612 9.57782C5.60054 9.78411 5.91848 9.9 6.25 9.9C6.58152 9.9 6.89946 9.78411 7.13388 9.57782C7.3683 9.37153 7.5 9.09174 7.5 8.8V7.7H12.5V8.8C12.5 9.09174 12.6317 9.37153 12.8661 9.57782C13.1005 9.78411 13.4185 9.9 13.75 9.9C14.0815 9.9 14.3995 9.78411 14.6339 9.57782C14.8683 9.37153 15 9.09174 15 8.8V7.7H17.5V18.7Z" fill="black"/>
</svg>
