<svg width="35" height="33" viewBox="0 0 35 33" fill="none" xmlns="http://www.w3.org/2000/svg">
<path d="M3.25524 8.62181L3.65622 8.32312L3.5318 8.15609L3.3256 8.12678L3.25524 8.62181ZM6.1051 12.4477L6.57696 12.613L6.66488 12.3622L6.50608 12.149L6.1051 12.4477ZM4.34986 13.7769L3.94888 14.0756L4.10979 14.2917L4.3787 14.2761L4.34986 13.7769ZM1.5 9.9511L1.00498 9.88074L0.975996 10.0846L1.09902 10.2498L1.5 9.9511ZM23.1413 11.5312L23.4535 11.1407L23.0654 10.8304L22.7527 11.2166L23.1413 11.5312ZM8.56627 29.5309L8.17769 29.2162L7.84179 29.631L8.27765 29.9391L8.56627 29.5309ZM11.8581 31.8579L11.5695 32.2662L11.9544 32.5383L12.2487 32.1701L11.8581 31.8579ZM24.8543 15.6013L24.4716 15.2793L24.4637 15.2891L24.8543 15.6013ZM26.2129 13.9867L26.5954 14.3086L26.9255 13.9163L26.5251 13.5961L26.2129 13.9867ZM25.4305 14.0383L25.7414 13.6467L25.3468 13.3335L25.0365 13.7304L25.4305 14.0383ZM32.8277 4.72011L33.1386 4.3285L32.747 4.01763L32.4361 4.40924L32.8277 4.72011ZM29.7659 8.57712L29.7569 9.07704L30.0039 9.08146L30.1575 8.888L29.7659 8.57712ZM28.0808 8.54697L27.5951 8.66587L27.6867 9.03999L28.0718 9.04689L28.0808 8.54697ZM27.6779 6.9015L27.2863 6.59062L27.134 6.78247L27.1923 7.0204L27.6779 6.9015ZM30.731 3.05561L31.1226 3.36648L31.4335 2.97488L31.0419 2.664L30.731 3.05561ZM13.8694 10.4387L14.2699 10.1393L13.9774 9.74804L13.5794 10.0313L13.8694 10.4387ZM20.8594 19.7916L20.4589 20.0909L20.5071 20.1554L20.5731 20.2015L20.8594 19.7916ZM22.8916 21.2109L23.3139 20.9432L23.2602 20.8584L23.1779 20.8009L22.8916 21.2109ZM28.3154 29.7681L28.6053 30.1755L28.9914 29.9007L28.7377 29.5004L28.3154 29.7681ZM25.7786 31.5736L25.3781 31.8729L25.6705 32.2642L26.0685 31.981L25.7786 31.5736ZM19.7206 23.4677L19.2456 23.6239L19.2711 23.7015L19.32 23.767L19.7206 23.4677ZM18.9568 21.1457L19.4318 20.9895L19.4062 20.9119L19.3573 20.8464L18.9568 21.1457ZM11.9668 11.7928L11.6769 11.3854L11.2599 11.6821L11.5663 12.0921L11.9668 11.7928ZM4.75575 6.84163L4.40195 6.48833L4.09552 6.79518L4.35596 7.14191L4.75575 6.84163ZM8.29245 11.5503L7.89267 11.8505L8.19295 12.2503L8.59273 11.9501L8.29245 11.5503ZM14.3465 7.00314L14.6468 7.40293L15.0466 7.10265L14.7463 6.70285L14.3465 7.00314ZM12.3255 4.31248L12.0252 3.91269L11.6254 4.21297L11.9257 4.61277L12.3255 4.31248ZM18.7173 1.61588L18.647 2.11091L22.1812 2.61316L18.921 1.15923L18.7173 1.61588ZM28.5354 30.0245L28.8322 30.4269C29.0511 30.2654 29.1008 29.9585 28.944 29.7362L28.5354 30.0245ZM21.9335 20.6667L22.342 20.3785C22.3102 20.3333 22.271 20.2937 22.2262 20.2614L21.9335 20.6667ZM20.0927 19.3373L19.6868 19.6291C19.7182 19.6728 19.7564 19.7111 19.8 19.7426L20.0927 19.3373ZM13.8003 10.5837L14.2063 10.2919C14.1288 10.184 14.0115 10.1114 13.8803 10.0902C13.7491 10.0689 13.6149 10.1008 13.5072 10.1787L13.8003 10.5837ZM12.0536 11.8478L11.7605 11.4427C11.5373 11.6042 11.4868 11.9159 11.6476 12.1396L12.0536 11.8478ZM18.346 20.6014L18.8234 20.4528C18.8075 20.4015 18.7833 20.3531 18.752 20.3095L18.346 20.6014ZM19.0223 22.7734L18.5449 22.9221C18.5615 22.9756 18.5871 23.026 18.6205 23.071L19.0223 22.7734ZM25.8565 31.9998L25.4548 32.2974C25.6189 32.519 25.9314 32.5659 26.1533 32.4022L25.8565 31.9998ZM5.04404 6.75509L4.69715 6.395C4.51795 6.56764 4.49296 6.84577 4.63852 7.04758L5.04404 6.75509ZM8.4889 11.5313L8.08337 11.8238C8.24491 12.0478 8.55742 12.0984 8.78138 11.9368L8.4889 11.5313ZM14.6298 7.1022L14.9223 7.50773C15.0298 7.43015 15.1022 7.31303 15.1234 7.18213C15.1446 7.05123 15.1129 6.91726 15.0353 6.80971L14.6298 7.1022ZM12.6613 4.37294L12.3688 3.96741C12.2612 4.04499 12.1889 4.16211 12.1677 4.29301C12.1465 4.42391 12.1782 4.55787 12.2558 4.66543L12.6613 4.37294ZM19.1041 1.8006L19.0242 2.29417C19.2703 2.33404 19.5082 2.18646 19.5818 1.94822C19.6555 1.70999 19.5423 1.45393 19.3166 1.34798L19.1041 1.8006ZM3.50971 8.50616L3.91639 8.21529C3.83885 8.10687 3.72123 8.0339 3.58965 8.01259L3.50971 8.50616ZM6.28497 12.3864L6.75355 12.5609C6.81154 12.4051 6.78835 12.2307 6.69166 12.0956L6.28497 12.3864ZM4.50434 13.6815L4.09765 13.9724C4.19547 14.1092 4.3555 14.1876 4.52353 14.1812L4.50434 13.6815ZM1.72907 9.80125L1.2355 9.72135C1.21442 9.85156 1.24565 9.98483 1.32238 10.0921L1.72907 9.80125ZM21.7696 17.5828C21.5996 17.8004 21.6381 18.1146 21.8556 18.2847C22.0732 18.4547 22.3874 18.4162 22.5575 18.1987L21.7696 17.5828ZM25.175 14.0384L25.4859 13.6468C25.3815 13.5639 25.2484 13.5262 25.116 13.5419C24.9837 13.5576 24.8631 13.6255 24.7811 13.7304L25.175 14.0384ZM23.5303 12.7386C23.704 12.5239 23.6707 12.2091 23.456 12.0354C23.2414 11.8618 22.9265 11.895 22.7528 12.1097L23.5303 12.7386ZM19.9809 15.5363C19.8072 15.751 19.8405 16.0659 20.0552 16.2395C20.2699 16.4132 20.5847 16.38 20.7584 16.1653L19.9809 15.5363ZM32.5724 4.72016L32.8833 4.32855C32.667 4.15686 32.3525 4.193 32.1808 4.40928L32.5724 4.72016ZM29.5105 8.57717L29.5016 9.07709C29.6572 9.07988 29.8053 9.00999 29.9021 8.88805L29.5105 8.57717ZM27.8254 8.54701L27.3398 8.66591C27.3938 8.88641 27.5895 9.04287 27.8165 9.04693L27.8254 8.54701ZM27.4226 6.90154L27.031 6.59067C26.9349 6.71169 26.9002 6.87035 26.9369 7.02044L27.4226 6.90154ZM30.4757 3.05565L30.8673 3.36653C30.9497 3.26267 30.9875 3.13031 30.9724 2.99857C30.9572 2.86683 30.8904 2.74649 30.7865 2.66404L30.4757 3.05565ZM23.2827 4.94079L22.8911 4.62991L22.8911 4.62992L23.2827 4.94079ZM22.7675 12.7655C22.9838 12.9372 23.2983 12.901 23.47 12.6847C23.6417 12.4685 23.6055 12.1539 23.3893 11.9823L22.7675 12.7655ZM16.3222 21.7021C16.4965 21.488 16.4642 21.173 16.25 20.9987C16.0358 20.8244 15.7209 20.8567 15.5466 21.0709L16.3222 21.7021ZM8.90417 30.0245L8.51637 29.7089C8.4305 29.8144 8.39132 29.9504 8.40789 30.0854C8.42446 30.2204 8.49533 30.3429 8.60417 30.4245L8.90417 30.0245ZM11.2837 31.8091L10.9837 32.2091C11.2015 32.3725 11.5099 32.3315 11.6776 32.117L11.2837 31.8091ZM17.6018 24.5385C17.7718 24.3209 17.7333 24.0067 17.5158 23.8366C17.2982 23.6665 16.984 23.705 16.8139 23.9226L17.6018 24.5385ZM3.25524 8.62181L2.85426 8.9205L5.70412 12.7463L6.1051 12.4477L6.50608 12.149L3.65622 8.32312L3.25524 8.62181ZM6.1051 12.4477L5.63324 12.2823C5.43337 12.8526 4.91448 13.2435 4.32102 13.2778L4.34986 13.7769L4.3787 14.2761C5.37915 14.2183 6.24489 13.5605 6.57696 12.613L6.1051 12.4477ZM4.34986 13.7769L4.75084 13.4783L1.90098 9.65241L1.5 9.9511L1.09902 10.2498L3.94888 14.0756L4.34986 13.7769ZM1.5 9.9511L1.99502 10.0215C2.07817 9.43649 2.61404 9.0357 3.18488 9.11683L3.25524 8.62181L3.3256 8.12678C2.20056 7.96688 1.16478 8.75642 1.00498 9.88074L1.5 9.9511ZM23.1413 11.5312L22.7527 11.2166L8.17769 29.2162L8.56627 29.5309L8.95485 29.8455L23.5299 11.8459L23.1413 11.5312ZM8.56627 29.5309L8.27765 29.9391L11.5695 32.2662L11.8581 31.8579L12.1467 31.4496L8.85489 29.1226L8.56627 29.5309ZM11.8581 31.8579L12.2487 32.1701L25.2448 15.9136L24.8543 15.6013L24.4637 15.2891L11.4676 31.5457L11.8581 31.8579ZM24.8543 15.6013L25.2369 15.9232L26.5954 14.3086L26.2129 13.9867L25.8303 13.6648L24.4717 15.2794L24.8543 15.6013ZM26.2129 13.9867L26.5251 13.5961L23.4535 11.1407L23.1413 11.5312L22.8291 11.9218L25.9007 14.3772L26.2129 13.9867ZM25.4305 14.0383L25.1196 14.4299C26.2355 15.3157 27.6952 15.49 29.1114 15.1188C30.5275 14.7477 31.933 13.8272 33.0151 12.4641L32.6235 12.1532L32.2319 11.8423C31.2713 13.0523 30.0453 13.8403 28.8579 14.1515C27.6708 14.4626 26.5554 14.2929 25.7414 13.6467L25.4305 14.0383ZM32.6235 12.1532L33.0151 12.4641C34.0972 11.101 34.6749 9.52326 34.7151 8.05998C34.7554 6.59651 34.2545 5.21431 33.1386 4.3285L32.8277 4.72011L32.5169 5.11172C33.3309 5.75794 33.7492 6.80572 33.7155 8.0325C33.6818 9.25948 33.1924 10.6323 32.2319 11.8423L32.6235 12.1532ZM32.8277 4.72011L32.4361 4.40924L29.3743 8.26625L29.7659 8.57712L30.1575 8.888L33.2194 5.03099L32.8277 4.72011ZM29.7659 8.57712L29.7748 8.0772L28.0897 8.04705L28.0808 8.54697L28.0718 9.04689L29.7569 9.07704L29.7659 8.57712ZM28.0808 8.54697L28.5664 8.42806L28.1636 6.7826L27.6779 6.9015L27.1923 7.0204L27.5951 8.66587L28.0808 8.54697ZM27.6779 6.9015L28.0695 7.21237L31.1226 3.36648L30.731 3.05561L30.3394 2.74473L27.2863 6.59062L27.6779 6.9015ZM30.731 3.05561L31.0419 2.664C29.926 1.7782 28.4662 1.60392 27.05 1.97509C25.634 2.3462 24.2285 3.26678 23.1464 4.62987L23.538 4.94075L23.9296 5.25163C24.8902 4.04161 26.1162 3.2536 27.3036 2.94242C28.4907 2.63128 29.6061 2.80099 30.4201 3.44721L30.731 3.05561ZM23.538 4.94075L23.1464 4.62987C22.0643 5.99296 21.4866 7.57067 21.4463 9.03395C21.4061 10.4974 21.907 11.8796 23.0229 12.7654L23.3337 12.3738L23.6446 11.9822C22.8306 11.336 22.4123 10.2882 22.446 9.06143C22.4797 7.83445 22.969 6.46164 23.9296 5.25163L23.538 4.94075ZM13.8694 10.4387L13.4689 10.738L20.4589 20.0909L20.8594 19.7916L21.2599 19.4923L14.2699 10.1393L13.8694 10.4387ZM20.8594 19.7916L20.5731 20.2015L22.6053 21.6208L22.8916 21.2109L23.1779 20.8009L21.1457 19.3817L20.8594 19.7916ZM22.8916 21.2109L22.4693 21.4785L27.8931 30.0358L28.3154 29.7681L28.7377 29.5004L23.3139 20.9432L22.8916 21.2109ZM25.7786 31.5736L26.1791 31.2743L20.1211 23.1683L19.7206 23.4677L19.32 23.767L25.3781 31.8729L25.7786 31.5736ZM19.7206 23.4677L20.1955 23.3114L19.4318 20.9895L18.9568 21.1457L18.4818 21.3019L19.2456 23.6239L19.7206 23.4677ZM18.9568 21.1457L19.3573 20.8464L12.3673 11.4934L11.9668 11.7928L11.5663 12.0921L18.5563 21.445L18.9568 21.1457ZM11.9668 11.7928L12.2567 12.2001L14.1593 10.846L13.8694 10.4387L13.5794 10.0313L11.6769 11.3854L11.9668 11.7928ZM4.75575 6.84163L4.35596 7.14191L7.89267 11.8505L8.29245 11.5503L8.69224 11.25L5.15553 6.54135L4.75575 6.84163ZM8.29245 11.5503L8.59273 11.9501L14.6468 7.40293L14.3465 7.00314L14.0462 6.60335L7.99218 11.1505L8.29245 11.5503ZM14.3465 7.00314L14.7463 6.70285L12.7253 4.0122L12.3255 4.31248L11.9257 4.61277L13.9467 7.30342L14.3465 7.00314ZM12.3255 4.31248C12.6258 4.71227 12.6258 4.71231 12.6257 4.71234C12.6257 4.71233 12.6257 4.71234 12.6257 4.71233C12.6258 4.7123 12.6259 4.71223 12.626 4.71211C12.6263 4.71188 12.6269 4.71146 12.6277 4.71087C12.6293 4.70968 12.6318 4.70778 12.6353 4.70519C12.6423 4.70001 12.653 4.69208 12.6673 4.68159C12.6959 4.66061 12.7387 4.62941 12.7944 4.58955C12.9059 4.50979 13.0688 4.39551 13.2718 4.25908C13.6785 3.98579 14.2436 3.62575 14.8787 3.27687C15.5156 2.92702 16.2121 2.59442 16.8832 2.37021C17.5628 2.14313 18.1702 2.04315 18.647 2.11091L18.7173 1.61588L18.7877 1.12085C18.0866 1.02122 17.306 1.17461 16.5663 1.42175C15.818 1.67177 15.0638 2.03424 14.3973 2.4004C13.7289 2.76752 13.1377 3.1444 12.7141 3.42904C12.502 3.57157 12.3311 3.6915 12.2126 3.77622C12.1534 3.81859 12.1072 3.85219 12.0756 3.87545C12.0597 3.88709 12.0475 3.89614 12.039 3.90241C12.0348 3.90554 12.0315 3.90798 12.0292 3.90971C12.0281 3.91057 12.0272 3.91125 12.0265 3.91175C12.0262 3.912 12.0259 3.9122 12.0257 3.91236C12.0256 3.91244 12.0255 3.91252 12.0254 3.91256C12.0253 3.91263 12.0252 3.91269 12.3255 4.31248ZM18.7173 1.61588C18.921 1.15923 18.9208 1.15914 18.9205 1.15904C18.9204 1.15899 18.9202 1.15888 18.92 1.1588C18.9196 1.15863 18.9192 1.15843 18.9187 1.15821C18.9176 1.15776 18.9164 1.1572 18.9149 1.15655C18.9119 1.15524 18.9079 1.15352 18.903 1.15141C18.8932 1.14719 18.8796 1.14143 18.8623 1.13431C18.8277 1.12007 18.7784 1.10037 18.7153 1.07671C18.5891 1.02939 18.4076 0.966083 18.1786 0.898744C17.7212 0.764224 17.0709 0.612652 16.2912 0.541316C14.7311 0.398576 12.6384 0.576591 10.5469 1.86911L10.8098 2.29445L11.0726 2.71978C12.9334 1.56983 14.7946 1.40856 16.2001 1.53716C16.9033 1.60149 17.4888 1.73824 17.8965 1.85812C18.1001 1.91799 18.2585 1.9734 18.3641 2.01301C18.4168 2.0328 18.4563 2.04862 18.4816 2.05902C18.4942 2.06422 18.5033 2.06807 18.5087 2.07038C18.5114 2.07154 18.5132 2.07231 18.514 2.07267C18.5144 2.07286 18.5146 2.07294 18.5145 2.07291C18.5145 2.0729 18.5144 2.07286 18.5143 2.0728C18.5142 2.07277 18.5141 2.0727 18.514 2.07268C18.5139 2.07261 18.5137 2.07253 18.7173 1.61588ZM10.8098 2.29445L10.5469 1.86911C8.55002 3.10319 7.01882 4.25302 5.98464 5.0965C5.46749 5.51829 5.07444 5.86362 4.8094 6.10479C4.67687 6.22538 4.57633 6.31994 4.50826 6.38501C4.47423 6.41755 4.44831 6.44271 4.43057 6.46007C4.4217 6.46876 4.41488 6.47549 4.4101 6.48021C4.40772 6.48258 4.40584 6.48444 4.40448 6.48579C4.4038 6.48647 4.40325 6.48702 4.40283 6.48744C4.40262 6.48765 4.40244 6.48783 4.40229 6.48798C4.40222 6.48805 4.40213 6.48814 4.40209 6.48818C4.40202 6.48826 4.40195 6.48833 4.75575 6.84163C5.10955 7.19493 5.1095 7.19499 5.10945 7.19503C5.10945 7.19504 5.10941 7.19508 5.1094 7.19509C5.10938 7.19511 5.10939 7.19509 5.10944 7.19505C5.10953 7.19496 5.10974 7.19474 5.11009 7.1944C5.11078 7.19371 5.11198 7.19252 5.11369 7.19082C5.11711 7.18743 5.12257 7.18205 5.13006 7.17472C5.14504 7.16006 5.16814 7.13762 5.19929 7.10784C5.2616 7.04827 5.35614 6.95932 5.4824 6.84442C5.73495 6.61463 6.11435 6.28113 6.61668 5.87143C7.62144 5.05194 9.11726 3.92818 11.0726 2.71978L10.8098 2.29445ZM22.4194 17.8907L22.8133 18.1986L25.8244 14.3462L25.4305 14.0383L25.0365 13.7304L22.0255 17.5828L22.4194 17.8907ZM23.3974 12.4239L23.0087 12.1094L20.2368 15.536L20.6255 15.8505L21.0142 16.165L23.7862 12.7383L23.3974 12.4239ZM28.5354 30.0245L28.944 29.7362L22.342 20.3785L21.9335 20.6667L21.5249 20.9549L28.1269 30.3127L28.5354 30.0245ZM21.9335 20.6667L22.2262 20.2614L20.3855 18.9319L20.0927 19.3373L19.8 19.7426L21.6407 21.072L21.9335 20.6667ZM20.0927 19.3373L20.4987 19.0454L14.2063 10.2919L13.8003 10.5837L13.3944 10.8756L19.6868 19.6291L20.0927 19.3373ZM13.8003 10.5837L13.5072 10.1787L11.7605 11.4427L12.0536 11.8478L12.3467 12.2528L14.0935 10.9888L13.8003 10.5837ZM12.0536 11.8478L11.6476 12.1396L17.94 20.8932L18.346 20.6014L18.752 20.3095L12.4596 11.5559L12.0536 11.8478ZM18.346 20.6014L17.8686 20.75L18.5449 22.9221L19.0223 22.7734L19.4997 22.6248L18.8234 20.4528L18.346 20.6014ZM19.0223 22.7734L18.6205 23.071L25.4548 32.2974L25.8565 31.9998L26.2583 31.7022L19.4241 22.4758L19.0223 22.7734ZM25.8565 31.9998L26.1533 32.4022L28.8322 30.4269L28.5354 30.0245L28.2387 29.622L25.5598 31.5974L25.8565 31.9998ZM5.04404 6.75509L4.63852 7.04758L8.08337 11.8238L8.4889 11.5313L8.89443 11.2388L5.44957 6.46261L5.04404 6.75509ZM8.4889 11.5313L8.78138 11.9368L14.9223 7.50773L14.6298 7.1022L14.3373 6.69667L8.19641 11.1258L8.4889 11.5313ZM14.6298 7.1022L15.0353 6.80971L13.0668 4.08045L12.6613 4.37294L12.2558 4.66543L14.2243 7.39469L14.6298 7.1022ZM12.6613 4.37294C12.9538 4.77846 12.9537 4.7785 12.9537 4.77853C12.9537 4.77852 12.9537 4.77853 12.9537 4.77852C12.9537 4.7785 12.9538 4.77842 12.954 4.77831C12.9543 4.77808 12.9549 4.77768 12.9557 4.7771C12.9573 4.77594 12.9599 4.77409 12.9634 4.77156C12.9705 4.76652 12.9814 4.7588 12.9958 4.74859C13.0248 4.72816 13.0683 4.6978 13.1248 4.65902C13.2378 4.58144 13.4028 4.47033 13.6084 4.33785C14.0204 4.07249 14.5923 3.72344 15.2341 3.38693C15.8776 3.04948 16.5805 2.73042 17.2557 2.51925C17.9396 2.30537 18.5488 2.21718 19.0242 2.29417L19.1041 1.8006L19.1841 1.30704C18.485 1.19382 17.7016 1.33206 16.9572 1.56483C16.2043 1.80031 15.4432 2.14812 14.7697 2.5013C14.0943 2.85542 13.496 3.22079 13.0669 3.49718C12.852 3.63558 12.6789 3.75217 12.5588 3.83459C12.4988 3.87581 12.452 3.90851 12.4198 3.93115C12.4038 3.94248 12.3914 3.95129 12.3828 3.9574C12.3785 3.96045 12.3752 3.96283 12.3728 3.9645C12.3717 3.96534 12.3708 3.96601 12.3701 3.96649C12.3697 3.96673 12.3695 3.96693 12.3693 3.96709C12.3691 3.96716 12.369 3.96725 12.369 3.96728C12.3689 3.96735 12.3688 3.96741 12.6613 4.37294ZM19.1041 1.8006C19.3166 1.34798 19.3164 1.34788 19.3161 1.34778C19.316 1.34773 19.3158 1.34762 19.3156 1.34753C19.3152 1.34735 19.3148 1.34714 19.3143 1.34691C19.3133 1.34644 19.312 1.34587 19.3105 1.34518C19.3076 1.34381 19.3036 1.34201 19.2988 1.33981C19.289 1.33541 19.2755 1.32939 19.2584 1.32193C19.2241 1.30702 19.1751 1.28638 19.1125 1.26149C18.9873 1.21174 18.807 1.14494 18.5794 1.07318C18.1246 0.929831 17.4774 0.765703 16.6993 0.679291C15.1422 0.506384 13.0465 0.643862 10.9304 1.89565L11.1849 2.32599L11.4395 2.75634C13.3222 1.64263 15.1861 1.51741 16.5889 1.67318C17.2907 1.75111 17.8735 1.89917 18.2788 2.02692C18.4811 2.09071 18.6384 2.14918 18.7432 2.19082C18.7956 2.21163 18.8348 2.22821 18.8599 2.2391C18.8724 2.24455 18.8814 2.24857 18.8867 2.25098C18.8894 2.25219 18.8912 2.253 18.892 2.25338C18.8924 2.25357 18.8926 2.25365 18.8925 2.25363C18.8925 2.25362 18.8924 2.25358 18.8923 2.25351C18.8922 2.25348 18.8921 2.25341 18.892 2.25339C18.8919 2.25331 18.8917 2.25323 19.1041 1.8006ZM11.1849 2.32599L10.9304 1.89565C8.90994 3.09083 7.35678 4.2108 6.30647 5.03409C5.78126 5.44579 5.3816 5.78344 5.11194 6.01943C4.97711 6.13743 4.87476 6.23003 4.80544 6.29377C4.77079 6.32564 4.74439 6.3503 4.72631 6.36731C4.71728 6.37582 4.71032 6.38242 4.70546 6.38705C4.70303 6.38937 4.70112 6.39119 4.69973 6.39252C4.69904 6.39319 4.69848 6.39373 4.69805 6.39414C4.69783 6.39435 4.69765 6.39452 4.6975 6.39467C4.69742 6.39474 4.69734 6.39482 4.6973 6.39486C4.69722 6.39494 4.69715 6.395 5.04404 6.75509C5.39094 7.11518 5.39088 7.11523 5.39084 7.11528C5.39083 7.11528 5.39079 7.11532 5.39078 7.11533C5.39076 7.11535 5.39078 7.11534 5.39082 7.11529C5.39091 7.1152 5.39114 7.11499 5.39149 7.11465C5.39219 7.11398 5.39342 7.11281 5.39516 7.11115C5.39864 7.10783 5.40421 7.10255 5.41184 7.09537C5.42709 7.081 5.45062 7.05901 5.48235 7.02984C5.5458 6.97149 5.64204 6.88438 5.7705 6.77196C6.02745 6.5471 6.41323 6.22101 6.92339 5.82112C7.94383 5.02124 9.46111 3.92665 11.4395 2.75634L11.1849 2.32599ZM3.50971 8.50616L3.10302 8.79703L5.87829 12.6773L6.28497 12.3864L6.69166 12.0956L3.91639 8.21529L3.50971 8.50616ZM6.28497 12.3864L5.8164 12.212C5.60554 12.7783 5.07917 13.1591 4.48515 13.1819L4.50434 13.6815L4.52353 14.1812C5.52484 14.1427 6.4032 13.5019 6.75355 12.5609L6.28497 12.3864ZM4.50434 13.6815L4.91102 13.3907L2.13576 9.51038L1.72907 9.80125L1.32238 10.0921L4.09765 13.9724L4.50434 13.6815ZM1.72907 9.80125L2.22265 9.88115C2.31706 9.29791 2.86062 8.90754 3.42976 8.99973L3.50971 8.50616L3.58965 8.01259C2.46792 7.8309 1.41698 8.60029 1.2355 9.72135L1.72907 9.80125ZM22.1635 17.8907L22.5575 18.1987L25.5689 14.3463L25.175 14.0384L24.7811 13.7304L21.7696 17.5828L22.1635 17.8907ZM23.1416 12.4242L22.7528 12.1097L19.9809 15.5363L20.3696 15.8508L20.7584 16.1653L23.5303 12.7386L23.1416 12.4242ZM25.175 14.0384L24.8641 14.43C25.98 15.3158 27.4398 15.4901 28.856 15.1189C30.2721 14.7478 31.6776 13.8272 32.7597 12.4641L32.3681 12.1532L31.9765 11.8424C31.0159 13.0524 29.7899 13.8404 28.6025 14.1516C27.4153 14.4627 26.2999 14.293 25.4859 13.6468L25.175 14.0384ZM32.3681 12.1532L32.7597 12.4641C33.8418 11.101 34.4196 9.5233 34.4598 8.06002C34.5 6.59655 33.9991 5.21435 32.8833 4.32855L32.5724 4.72016L32.2615 5.11176C33.0756 5.75799 33.4939 6.80577 33.4602 8.03255C33.4264 9.25952 32.9371 10.6323 31.9765 11.8424L32.3681 12.1532ZM32.5724 4.72016L32.1808 4.40928L29.1189 8.26629L29.5105 8.57717L29.9021 8.88805L32.964 5.03103L32.5724 4.72016ZM29.5105 8.57717L29.5195 8.07725L27.8344 8.04709L27.8254 8.54701L27.8165 9.04693L29.5016 9.07709L29.5105 8.57717ZM27.8254 8.54701L28.3111 8.42811L27.9082 6.78264L27.4226 6.90154L26.9369 7.02044L27.3398 8.66591L27.8254 8.54701ZM27.4226 6.90154L27.8142 7.21242L30.8673 3.36653L30.4757 3.05565L30.084 2.74477L27.031 6.59067L27.4226 6.90154ZM30.4757 3.05565L30.7865 2.66404C29.6707 1.77824 28.2109 1.60397 26.7947 1.97513C25.3787 2.34625 23.9732 3.26682 22.8911 4.62991L23.2827 4.94079L23.6743 5.25167C24.6349 4.04166 25.8609 3.25365 27.0482 2.94246C28.2354 2.63133 29.3507 2.80104 30.1648 3.44726L30.4757 3.05565ZM23.2827 4.94079L22.8911 4.62992C21.809 5.99304 21.2312 7.57075 21.191 9.03402C21.1508 10.4975 21.6517 11.8797 22.7675 12.7655L23.0784 12.3739L23.3893 11.9823C22.5752 11.336 22.1569 10.2883 22.1906 9.06149C22.2243 7.83453 22.7137 6.46171 23.6743 5.25167L23.2827 4.94079ZM15.9344 21.3865L15.5466 21.0709L8.51637 29.7089L8.90417 30.0245L9.29197 30.3401L16.3222 21.7021L15.9344 21.3865ZM8.90417 30.0245L8.60417 30.4245L10.9837 32.2091L11.2837 31.8091L11.5837 31.4091L9.20417 29.6245L8.90417 30.0245ZM11.2837 31.8091L11.6776 32.117L17.6018 24.5385L17.2078 24.2305L16.8139 23.9226L10.8897 31.5012L11.2837 31.8091ZM28.3154 29.7681L28.0255 29.3607L25.4887 31.1662L25.7786 31.5736L26.0685 31.981L28.6053 30.1755L28.3154 29.7681Z" fill="black"/>
</svg>
