<svg width="39" height="26" viewBox="0 0 39 26" fill="none" xmlns="http://www.w3.org/2000/svg">
<path d="M0.5 25C0.5 25.5523 0.947715 26 1.5 26C2.05228 26 2.5 25.5523 2.5 25H0.5ZM23.4091 25C23.4091 25.5523 23.8568 26 24.4091 26C24.9614 26 25.4091 25.5523 25.4091 25H23.4091ZM20.1364 16.5294C20.1364 17.0817 20.5841 17.5294 21.1364 17.5294C21.6887 17.5294 22.1364 17.0817 22.1364 16.5294H20.1364ZM36.5 17.2353C36.5 17.7876 36.9477 18.2353 37.5 18.2353C38.0523 18.2353 38.5 17.7876 38.5 17.2353H36.5ZM1.5 25H2.5V23.5882H1.5H0.5V25H1.5ZM1.5 23.5882H2.5C2.5 18.8161 7.037 14.7059 12.9545 14.7059V13.7059V12.7059C6.21976 12.7059 0.5 17.4446 0.5 23.5882H1.5ZM12.9545 13.7059V14.7059C18.8721 14.7059 23.4091 18.8161 23.4091 23.5882H24.4091H25.4091C25.4091 17.4446 19.6893 12.7059 12.9545 12.7059V13.7059ZM24.4091 23.5882H23.4091V25H24.4091H25.4091V23.5882H24.4091ZM21.1364 16.5294H22.1364C22.1364 13.3167 25.2082 10.4706 29.3182 10.4706V9.47059V8.47059C24.3909 8.47059 20.1364 11.9452 20.1364 16.5294H21.1364ZM29.3182 9.47059V10.4706C33.4282 10.4706 36.5 13.3167 36.5 16.5294H37.5H38.5C38.5 11.9452 34.2455 8.47059 29.3182 8.47059V9.47059ZM37.5 16.5294H36.5V17.2353H37.5H38.5V16.5294H37.5ZM12.9545 13.7059V14.7059C16.9781 14.7059 20.5 11.8633 20.5 8.05882H19.5H18.5C18.5 10.4918 16.1608 12.7059 12.9545 12.7059V13.7059ZM19.5 8.05882H20.5C20.5 4.25428 16.9781 1.41176 12.9545 1.41176V2.41176V3.41176C16.1608 3.41176 18.5 5.62579 18.5 8.05882H19.5ZM12.9545 2.41176V1.41176C8.93097 1.41176 5.40909 4.25429 5.40909 8.05882H6.40909H7.40909C7.40909 5.62579 9.74821 3.41176 12.9545 3.41176V2.41176ZM6.40909 8.05882H5.40909C5.40909 11.8633 8.93096 14.7059 12.9545 14.7059V13.7059V12.7059C9.74822 12.7059 7.40909 10.4918 7.40909 8.05882H6.40909ZM29.3182 9.47059V10.4706C32.4381 10.4706 35.2273 8.26012 35.2273 5.23529H34.2273H33.2273C33.2273 6.88864 31.6208 8.47059 29.3182 8.47059V9.47059ZM34.2273 5.23529H35.2273C35.2273 2.21047 32.4381 0 29.3182 0V1V2C31.6208 2 33.2273 3.58195 33.2273 5.23529H34.2273ZM29.3182 1V0C26.1983 0 23.4091 2.21047 23.4091 5.23529H24.4091H25.4091C25.4091 3.58195 27.0155 2 29.3182 2V1ZM24.4091 5.23529H23.4091C23.4091 8.26012 26.1983 10.4706 29.3182 10.4706V9.47059V8.47059C27.0155 8.47059 25.4091 6.88863 25.4091 5.23529H24.4091Z" fill="#F43F5F"/>
</svg>
