<svg width="36" height="37" viewBox="0 0 36 37" fill="none" xmlns="http://www.w3.org/2000/svg">
<path d="M17.9842 2.5L18.8874 2.07072L17.9834 0.168766L17.0807 2.07137L17.9842 2.5ZM13.6386 11.6597L13.7883 12.6485L14.3141 12.5689L14.5421 12.0884L13.6386 11.6597ZM3.91485 13.1321L3.76514 12.1434L1.82302 12.4374L3.20343 13.8349L3.91485 13.1321ZM10.954 20.258L11.9407 20.4204L12.0234 19.9177L11.6654 19.5552L10.954 20.258ZM9.29643 30.3243L8.30971 30.1618L7.97642 32.186L9.77625 31.2017L9.29643 30.3243ZM17.9924 25.5685L18.4716 24.6908L17.992 24.429L17.5126 24.6912L17.9924 25.5685ZM26.6918 30.3176L26.2127 31.1953L28.0131 32.1782L27.6784 30.1544L26.6918 30.3176ZM25.0271 20.2525L24.3151 19.5503L23.9573 19.913L24.0405 20.4157L25.0271 20.2525ZM32.0611 13.1212L32.7731 13.8235L34.1525 12.425L32.2101 12.1324L32.0611 13.1212ZM22.3363 11.6564L21.4331 12.0857L21.6614 12.566L22.1873 12.6452L22.3363 11.6564ZM6.42988 22.0063L7.01041 22.8205L9.86885 20.7825L6.36555 21.0084L6.42988 22.0063ZM1.5 22.3241L1.43567 21.3262L0.143525 21.4094L0.55074 22.6386L1.5 22.3241ZM2.35682 24.9103L1.40756 25.2248L1.8338 26.5113L2.93735 25.7245L2.35682 24.9103ZM29.5701 21.742L29.6344 20.744L26.1312 20.5182L28.9896 22.5562L29.5701 21.742ZM34.5 22.0598L35.4493 22.3743L35.8565 21.1451L34.5643 21.0618L34.5 22.0598ZM33.6432 24.646L33.0626 25.4602L34.1662 26.247L34.5924 24.9605L33.6432 24.646ZM10.6204 7.76165L9.99626 8.54294L12.8548 10.8267L11.5552 7.40646L10.6204 7.76165ZM8.80618 2.98695L9.74097 2.63176L9.25866 1.36242L8.18961 2.19966L8.80618 2.98695ZM6.70432 4.63304L6.08775 3.84574L5.09243 4.62523L6.08015 5.41432L6.70432 4.63304ZM25.6299 8.03393L24.7077 7.64721L23.2964 11.0126L26.2261 8.83674L25.6299 8.03393ZM29.6486 5.04926L30.2449 5.85207L31.2598 5.09826L30.2926 4.28417L29.6486 5.04926ZM27.6034 3.3279L28.2473 2.56281L27.207 1.68727L26.6812 2.94117L27.6034 3.3279ZM17.9575 30.552L18.9239 30.295L17.9575 26.6611L16.9911 30.295L17.9575 30.552ZM16.6416 35.5L15.6752 35.243L15.3409 36.5H16.6416V35.5ZM19.2733 35.5V36.5H20.5741L20.2398 35.243L19.2733 35.5ZM17.9599 2.5L18.8631 2.07071C18.6973 1.722 18.3456 1.49986 17.9595 1.5C17.5734 1.50014 17.2219 1.72254 17.0564 2.07137L17.9599 2.5ZM13.6143 11.6597L13.764 12.6485C14.0928 12.5987 14.3753 12.3888 14.5178 12.0884L13.6143 11.6597ZM3.89053 13.1321L3.74082 12.1434C3.3689 12.1997 3.06004 12.4599 2.94149 12.8169C2.82294 13.1739 2.91476 13.5672 3.17911 13.8349L3.89053 13.1321ZM10.9296 20.258L11.9163 20.4204C11.9684 20.1046 11.866 19.7829 11.6411 19.5552L10.9296 20.258ZM9.27216 30.3243L8.28545 30.1618C8.22332 30.5391 8.38181 30.9189 8.69376 31.14C9.00571 31.3612 9.41648 31.3851 9.75199 31.2017L9.27216 30.3243ZM17.9681 25.5685L18.4473 24.6908C18.1484 24.5276 17.787 24.5278 17.4883 24.6912L17.9681 25.5685ZM26.6675 30.3176L26.1883 31.1953C26.524 31.3785 26.9347 31.3543 27.2465 31.1329C27.5583 30.9115 27.7165 30.5317 27.6541 30.1544L26.6675 30.3176ZM25.0028 20.2525L24.2909 19.5503C24.0661 19.7782 23.964 20.0999 24.0162 20.4157L25.0028 20.2525ZM32.0368 13.1212L32.7488 13.8235C33.0129 13.5557 33.1044 13.1623 32.9856 12.8054C32.8668 12.4485 32.5577 12.1884 32.1858 12.1324L32.0368 13.1212ZM22.312 11.6564L21.4089 12.0857C21.5516 12.386 21.8343 12.5957 22.1631 12.6452L22.312 11.6564ZM17.9637 30.552L18.9301 30.295C18.8136 29.8569 18.417 29.552 17.9637 29.552C17.5104 29.552 17.1138 29.8569 16.9973 30.295L17.9637 30.552ZM16.6478 35.5L15.6814 35.243C15.6016 35.5431 15.6657 35.8633 15.855 36.1095C16.0443 36.3557 16.3372 36.5 16.6478 36.5V35.5ZM19.2796 35.5V36.5C19.5902 36.5 19.8831 36.3557 20.0724 36.1095C20.2617 35.8633 20.3258 35.5431 20.246 35.243L19.2796 35.5ZM29.5587 21.7966L29.605 20.7976C29.1587 20.777 28.753 21.0548 28.6108 21.4782C28.4686 21.9017 28.6245 22.3681 28.9927 22.6209L29.5587 21.7966ZM33.68 24.6263L33.1139 25.4506C33.3756 25.6303 33.7069 25.6751 34.0069 25.5713C34.3068 25.4676 34.5397 25.2276 34.6344 24.9247L33.68 24.6263ZM34.4932 22.0249L35.4477 22.3233C35.5402 22.0274 35.4902 21.7054 35.3124 21.4514C35.1346 21.1975 34.8491 21.0403 34.5395 21.026L34.4932 22.0249ZM6.43614 22.0063L7.01667 22.8205C7.38045 22.5612 7.52805 22.092 7.37827 21.671C7.22848 21.2501 6.81766 20.9796 6.37181 21.0084L6.43614 22.0063ZM1.50621 22.3241L1.44188 21.3262C1.13273 21.3461 0.850273 21.5082 0.677081 21.765C0.503889 22.0219 0.459522 22.3445 0.55695 22.6386L1.50621 22.3241ZM2.36303 24.9103L1.41377 25.2248C1.51363 25.5262 1.75068 25.7622 2.0525 25.8608C2.35432 25.9594 2.68502 25.9088 2.94356 25.7245L2.36303 24.9103ZM25.6366 8.03393L24.7144 7.64721C24.5402 8.06266 24.6653 8.54331 25.0199 8.82113C25.3746 9.09896 25.8712 9.10535 26.2328 8.83674L25.6366 8.03393ZM29.6554 5.04926L30.2516 5.85207C30.497 5.66979 30.6456 5.38524 30.6549 5.07966C30.6642 4.77408 30.5332 4.48103 30.2993 4.28417L29.6554 5.04926ZM27.6101 3.3279L28.254 2.56281C28.0107 2.358 27.6844 2.28117 27.3752 2.35586C27.0661 2.43056 26.8109 2.64786 26.6879 2.94117L27.6101 3.3279ZM10.6266 7.76165L10.0024 8.54293C10.3546 8.82428 10.8514 8.83525 11.2157 8.56973C11.5799 8.3042 11.7215 7.82781 11.5614 7.40646L10.6266 7.76165ZM8.81234 2.98695L9.74713 2.63176C9.63424 2.33465 9.38683 2.1089 9.08065 2.02362C8.77447 1.93834 8.44598 2.00369 8.19575 2.19966L8.81234 2.98695ZM6.71053 4.63304L6.09395 3.84575C5.85326 4.03425 5.71202 4.32248 5.71054 4.62819C5.70906 4.9339 5.8475 5.2235 6.08635 5.41432L6.71053 4.63304ZM17.9842 2.5L17.0807 2.07137L12.7351 11.2311L13.6386 11.6597L14.5421 12.0884L18.8877 2.92863L17.9842 2.5ZM13.6386 11.6597L13.4889 10.671L3.76514 12.1434L3.91485 13.1321L4.06456 14.1208L13.7883 12.6485L13.6386 11.6597ZM3.91485 13.1321L3.20343 13.8349L10.2425 20.9607L10.954 20.258L11.6654 19.5552L4.62628 12.4293L3.91485 13.1321ZM10.954 20.258L9.96724 20.0955L8.30971 30.1618L9.29643 30.3243L10.2831 30.4868L11.9407 20.4204L10.954 20.258ZM9.29643 30.3243L9.77625 31.2017L18.4722 26.4459L17.9924 25.5685L17.5126 24.6912L8.8166 29.4469L9.29643 30.3243ZM17.9924 25.5685L17.5133 26.4463L26.2127 31.1953L26.6918 30.3176L27.171 29.4398L18.4716 24.6908L17.9924 25.5685ZM26.6918 30.3176L27.6784 30.1544L26.0137 20.0893L25.0271 20.2525L24.0405 20.4157L25.7052 30.4807L26.6918 30.3176ZM25.0271 20.2525L25.739 20.9547L32.7731 13.8235L32.0611 13.1212L31.3492 12.419L24.3151 19.5503L25.0271 20.2525ZM32.0611 13.1212L32.2101 12.1324L22.4852 10.6675L22.3363 11.6564L22.1873 12.6452L31.9122 14.1101L32.0611 13.1212ZM22.3363 11.6564L23.2395 11.2271L18.8874 2.07072L17.9842 2.5L17.081 2.92928L21.4331 12.0857L22.3363 11.6564ZM6.42988 22.0063L6.36555 21.0084L1.43567 21.3262L1.5 22.3241L1.56433 23.322L6.49421 23.0042L6.42988 22.0063ZM1.5 22.3241L0.55074 22.6386L1.40756 25.2248L2.35682 24.9103L3.30608 24.5958L2.44926 22.0096L1.5 22.3241ZM2.35682 24.9103L2.93735 25.7245L7.01041 22.8205L6.42988 22.0063L5.84935 21.192L1.77629 24.096L2.35682 24.9103ZM29.5701 21.742L29.5058 22.7399L34.4357 23.0577L34.5 22.0598L34.5643 21.0618L29.6344 20.744L29.5701 21.742ZM34.5 22.0598L33.5507 21.7453L32.6939 24.3315L33.6432 24.646L34.5924 24.9605L35.4493 22.3743L34.5 22.0598ZM33.6432 24.646L34.2237 23.8317L30.1507 20.9277L29.5701 21.742L28.9896 22.5562L33.0626 25.4602L33.6432 24.646ZM10.6204 7.76165L11.5552 7.40646L9.74097 2.63176L8.80618 2.98695L7.87139 3.34215L9.68565 8.11685L10.6204 7.76165ZM8.80618 2.98695L8.18961 2.19966L6.08775 3.84574L6.70432 4.63304L7.3209 5.42033L9.42276 3.77425L8.80618 2.98695ZM6.70432 4.63304L6.08015 5.41432L9.99626 8.54294L10.6204 7.76165L11.2446 6.98037L7.3285 3.85175L6.70432 4.63304ZM25.6299 8.03393L26.2261 8.83674L30.2449 5.85207L29.6486 5.04926L29.0524 4.24645L25.0336 7.23112L25.6299 8.03393ZM29.6486 5.04926L30.2926 4.28417L28.2473 2.56281L27.6034 3.3279L26.9594 4.09299L29.0047 5.81435L29.6486 5.04926ZM27.6034 3.3279L26.6812 2.94117L24.7077 7.64721L25.6299 8.03393L26.5521 8.42065L28.5256 3.71462L27.6034 3.3279ZM17.9575 30.552L16.9911 30.295L15.6752 35.243L16.6416 35.5L17.608 35.757L18.9239 30.809L17.9575 30.552ZM16.6416 35.5V36.5H19.2733V35.5V34.5H16.6416V35.5ZM19.2733 35.5L20.2398 35.243L18.9239 30.295L17.9575 30.552L16.9911 30.809L18.3069 35.757L19.2733 35.5ZM17.9599 2.5L17.0564 2.07137L12.7108 11.2311L13.6143 11.6597L14.5178 12.0884L18.8634 2.92863L17.9599 2.5ZM13.6143 11.6597L13.4646 10.671L3.74082 12.1434L3.89053 13.1321L4.04024 14.1208L13.764 12.6485L13.6143 11.6597ZM3.89053 13.1321L3.17911 13.8349L10.2182 20.9607L10.9296 20.258L11.6411 19.5552L4.60196 12.4293L3.89053 13.1321ZM10.9296 20.258L9.94292 20.0955L8.28545 30.1618L9.27216 30.3243L10.2589 30.4868L11.9163 20.4204L10.9296 20.258ZM9.27216 30.3243L9.75199 31.2017L18.4479 26.4459L17.9681 25.5685L17.4883 24.6912L8.79233 29.4469L9.27216 30.3243ZM17.9681 25.5685L17.4889 26.4463L26.1883 31.1953L26.6675 30.3176L27.1466 29.4398L18.4473 24.6908L17.9681 25.5685ZM26.6675 30.3176L27.6541 30.1544L25.9894 20.0893L25.0028 20.2525L24.0162 20.4157L25.6809 30.4807L26.6675 30.3176ZM25.0028 20.2525L25.7148 20.9547L32.7488 13.8235L32.0368 13.1212L31.3249 12.419L24.2909 19.5503L25.0028 20.2525ZM32.0368 13.1212L32.1858 12.1324L22.461 10.6675L22.312 11.6564L22.1631 12.6452L31.8879 14.1101L32.0368 13.1212ZM22.312 11.6564L23.2152 11.2271L18.8631 2.07071L17.9599 2.5L17.0567 2.92929L21.4089 12.0857L22.312 11.6564ZM17.9637 30.552L16.9973 30.295L15.6814 35.243L16.6478 35.5L17.6142 35.757L18.9301 30.809L17.9637 30.552ZM16.6478 35.5V36.5H19.2796V35.5V34.5H16.6478V35.5ZM19.2796 35.5L20.246 35.243L18.9301 30.295L17.9637 30.552L16.9973 30.809L18.3132 35.757L19.2796 35.5ZM29.5587 21.7966L28.9927 22.6209L33.1139 25.4506L33.68 24.6263L34.246 23.8019L30.1248 20.9722L29.5587 21.7966ZM33.68 24.6263L34.6344 24.9247L35.4477 22.3233L34.4932 22.0249L33.5388 21.7265L32.7255 24.3279L33.68 24.6263ZM34.4932 22.0249L34.5395 21.026L29.605 20.7976L29.5587 21.7966L29.5125 22.7955L34.447 23.0239L34.4932 22.0249ZM6.43614 22.0063L6.37181 21.0084L1.44188 21.3262L1.50621 22.3241L1.57054 23.322L6.50047 23.0042L6.43614 22.0063ZM1.50621 22.3241L0.55695 22.6386L1.41377 25.2248L2.36303 24.9103L3.31229 24.5958L2.45547 22.0096L1.50621 22.3241ZM2.36303 24.9103L2.94356 25.7245L7.01667 22.8205L6.43614 22.0063L5.85561 21.192L1.7825 24.096L2.36303 24.9103ZM25.6366 8.03393L26.2328 8.83674L30.2516 5.85207L29.6554 5.04926L29.0591 4.24645L25.0404 7.23112L25.6366 8.03393ZM29.6554 5.04926L30.2993 4.28417L28.254 2.56281L27.6101 3.3279L26.9662 4.09299L29.0114 5.81435L29.6554 5.04926ZM27.6101 3.3279L26.6879 2.94117L24.7144 7.64721L25.6366 8.03393L26.5588 8.42065L28.5323 3.71462L27.6101 3.3279ZM10.6266 7.76165L11.5614 7.40646L9.74713 2.63176L8.81234 2.98695L7.87755 3.34215L9.6918 8.11685L10.6266 7.76165ZM8.81234 2.98695L8.19575 2.19966L6.09395 3.84575L6.71053 4.63304L7.32712 5.42032L9.42892 3.77424L8.81234 2.98695ZM6.71053 4.63304L6.08635 5.41432L10.0024 8.54293L10.6266 7.76165L11.2508 6.98037L7.33471 3.85175L6.71053 4.63304Z" fill="black"/>
</svg>
